<svg width="119.000000" height="32.000000" viewBox="0 0 119 32" fill="none" xmlns="http://www.w3.org/2000/svg" xmlns:xlink="http://www.w3.org/1999/xlink">
	<desc>
			Created with Pixso.
	</desc>
	<defs/>
	<rect id="Rectangle" rx="16.000000" width="119.000000" height="32.000000" fill="#FF3E79" fill-opacity="1.000000"/>
	<rect id="Rectangle" rx="16.000000" width="119.000000" height="32.000000" stroke="#979797" stroke-opacity="0" stroke-width="0.000000"/>
	<path id="Заказать" d="M19.83 14.83C19.94 14.66 20 14.42 20 14.14L20 13.48Q20 12.43 19.47 11.9Q18.95 11.38 17.9 11.38L14.84 11.38Q13.79 11.38 13.26 11.9Q12.74 12.43 12.74 13.48L12.74 14.08C12.74 14.28 12.84 14.38 13.04 14.38L14.36 14.38Q14.51 14.38 14.58 14.3Q14.66 14.23 14.66 14.08L14.66 13.72C14.66 13.28 14.88 13.06 15.32 13.06L17.42 13.06Q17.75 13.06 17.91 13.22Q18.08 13.39 18.08 13.72L18.08 14.14C18.08 14.58 17.86 14.8 17.42 14.8L15.8 14.8Q15.65 14.8 15.57 14.87Q15.5 14.95 15.5 15.1L15.5 16.18C15.5 16.37 15.6 16.48 15.8 16.48L17.54 16.48Q17.87 16.48 18.03 16.64Q18.2 16.81 18.2 17.14L18.2 17.68C18.2 18.12 17.98 18.34 17.54 18.34L15.2 18.34Q14.87 18.34 14.7 18.17Q14.54 18.01 14.54 17.68L14.54 17.32C14.54 17.12 14.44 17.02 14.24 17.02L12.92 17.02Q12.77 17.02 12.69 17.09Q12.62 17.17 12.62 17.32L12.62 17.92Q12.62 18.96 13.14 19.49Q13.67 20.02 14.72 20.02L18.02 20.02Q19.07 20.02 19.59 19.49Q20.12 18.96 20.12 17.92L20.12 17.14C20.12 16.79 20.05 16.52 19.93 16.32Q19.75 16.01 19.52 15.84C19.34 15.71 19.14 15.62 18.92 15.58L18.92 15.46C19.12 15.42 19.3 15.34 19.46 15.23C19.59 15.13 19.72 15 19.83 14.83ZM54.35 14.83C54.46 14.66 54.52 14.42 54.52 14.14L54.52 13.48C54.52 12.08 53.82 11.38 52.42 11.38L49.36 11.38C47.96 11.38 47.26 12.08 47.26 13.48L47.26 14.08C47.26 14.28 47.36 14.38 47.56 14.38L48.88 14.38C49.08 14.38 49.18 14.28 49.18 14.08L49.18 13.72C49.18 13.28 49.4 13.06 49.84 13.06L51.94 13.06C52.38 13.06 52.6 13.28 52.6 13.72L52.6 14.14C52.6 14.58 52.38 14.8 51.94 14.8L50.32 14.8C50.12 14.8 50.02 14.9 50.02 15.1L50.02 16.18C50.02 16.37 50.12 16.48 50.32 16.48L52.06 16.48C52.5 16.48 52.72 16.7 52.72 17.14L52.72 17.68C52.72 18.12 52.5 18.34 52.06 18.34L49.72 18.34C49.28 18.34 49.06 18.12 49.06 17.68L49.06 17.32C49.06 17.12 48.96 17.02 48.76 17.02L47.44 17.02C47.24 17.02 47.14 17.12 47.14 17.32L47.14 17.92Q47.14 18.96 47.66 19.49Q48.19 20.02 49.24 20.02L52.54 20.02C53.94 20.02 54.64 19.32 54.64 17.92L54.64 17.14C54.64 16.79 54.57 16.52 54.45 16.32C54.33 16.11 54.19 15.95 54.04 15.84C53.86 15.71 53.66 15.62 53.44 15.58L53.44 15.46C53.64 15.42 53.82 15.34 53.98 15.23Q54.18 15.08 54.35 14.83ZM22.95 19.6L23.49 18.16L26.73 18.16L27.27 19.6C27.31 19.68 27.36 19.76 27.41 19.81Q27.51 19.9 27.69 19.9L29.19 19.9C29.39 19.9 29.45 19.79 29.37 19.6L26.43 11.8C26.39 11.71 26.34 11.64 26.27 11.58C26.22 11.52 26.13 11.5 26.01 11.5L24.27 11.5Q24.06 11.5 23.93 11.6Q23.84 11.67 23.79 11.8L20.85 19.6C20.77 19.79 20.83 19.9 21.03 19.9L22.53 19.9C22.65 19.9 22.74 19.87 22.79 19.81C22.86 19.76 22.91 19.68 22.95 19.6ZM33.88 14.68L32.26 14.68L32.26 11.8C32.26 11.6 32.16 11.5 31.96 11.5L30.64 11.5Q30.49 11.5 30.41 11.57Q30.34 11.65 30.34 11.8L30.34 19.6C30.34 19.79 30.44 19.9 30.64 19.9L31.96 19.9Q32.11 19.9 32.18 19.82Q32.26 19.75 32.26 19.6L32.26 16.36L33.94 16.36L35.68 19.6C35.73 19.68 35.79 19.76 35.86 19.81C35.94 19.87 36.04 19.9 36.16 19.9L37.66 19.9C37.75 19.9 37.81 19.87 37.85 19.81C37.89 19.76 37.89 19.68 37.84 19.6L35.56 15.46L37.6 11.8C37.65 11.71 37.65 11.64 37.61 11.58C37.57 11.52 37.51 11.5 37.42 11.5L35.92 11.5C35.8 11.5 35.7 11.52 35.62 11.58C35.55 11.64 35.49 11.71 35.44 11.8L33.88 14.68ZM40.11 19.6L40.65 18.16L43.89 18.16L44.43 19.6C44.47 19.68 44.52 19.76 44.57 19.81Q44.67 19.9 44.85 19.9L46.35 19.9C46.55 19.9 46.61 19.79 46.53 19.6L43.59 11.8C43.55 11.71 43.5 11.64 43.43 11.58C43.38 11.52 43.29 11.5 43.17 11.5L41.43 11.5Q41.22 11.5 41.09 11.6Q41 11.67 40.95 11.8L38.01 19.6C37.93 19.79 37.99 19.9 38.19 19.9L39.69 19.9C39.81 19.9 39.9 19.87 39.95 19.81C40.02 19.76 40.07 19.68 40.11 19.6ZM57.47 19.6L58.01 18.16L61.25 18.16L61.79 19.6C61.83 19.68 61.88 19.76 61.93 19.81C62 19.87 62.09 19.9 62.21 19.9L63.71 19.9C63.91 19.9 63.97 19.79 63.89 19.6L60.95 11.8C60.91 11.71 60.86 11.64 60.79 11.58C60.74 11.52 60.65 11.5 60.53 11.5L58.79 11.5Q58.58 11.5 58.45 11.6Q58.36 11.67 58.31 11.8L55.37 19.6C55.29 19.79 55.35 19.9 55.55 19.9L57.05 19.9C57.17 19.9 57.26 19.87 57.31 19.81C57.38 19.76 57.43 19.68 57.47 19.6ZM67.14 19.9C67.34 19.9 67.44 19.79 67.44 19.6L67.44 13.18L69.84 13.18C70.04 13.18 70.14 13.08 70.14 12.88L70.14 11.8C70.14 11.6 70.04 11.5 69.84 11.5L63.12 11.5C62.92 11.5 62.82 11.6 62.82 11.8L62.82 12.88C62.82 13.08 62.92 13.18 63.12 13.18L65.52 13.18L65.52 19.6C65.52 19.79 65.62 19.9 65.82 19.9L67.14 19.9ZM78.27 16.12C78.27 14.72 77.57 14.02 76.17 14.02L72.99 14.02L72.99 11.8C72.99 11.6 72.89 11.5 72.69 11.5L71.37 11.5C71.17 11.5 71.07 11.6 71.07 11.8L71.07 19.6C71.07 19.79 71.17 19.9 71.37 19.9L76.17 19.9C77.57 19.9 78.27 19.2 78.27 17.79L78.27 16.12ZM25.17 13.9L26.13 16.48L24.09 16.48L25.05 13.9L25.17 13.9ZM42.33 13.9L43.29 16.48L41.25 16.48L42.21 13.9L42.33 13.9ZM59.69 13.9L60.65 16.48L58.61 16.48L59.57 13.9L59.69 13.9ZM76.35 17.56C76.35 18 76.13 18.21 75.69 18.21L72.99 18.21L72.99 15.7L75.69 15.7C76.13 15.7 76.35 15.92 76.35 16.36L76.35 17.56Z" fill="#FFFFFF" fill-opacity="1.000000" fill-rule="evenodd"/>
	<rect id="back" x="87.000000" y="4.000000" rx="12.000000" width="24.000000" height="24.000000" fill="#FF3E79" fill-opacity="1.000000"/>
	<path id="dropdown" d="M99.8 16L96.79 13.22C96.36 12.83 96.36 12.16 96.78 11.76L96.92 11.63C97.3 11.27 97.89 11.27 98.28 11.63L102.2 15.26C102.63 15.66 102.63 16.33 102.2 16.73L98.34 20.3C97.92 20.69 97.27 20.69 96.85 20.3C96.39 19.86 96.39 19.13 96.86 18.7L99.8 16Z" fill="#FFFFFF" fill-opacity="1.000000" fill-rule="evenodd"/>
</svg>
