<svg width="136.000000" height="32.000000" viewBox="0 0 136 32" fill="none" xmlns="http://www.w3.org/2000/svg" xmlns:xlink="http://www.w3.org/1999/xlink">
	<desc>
			Created with Pixso.
	</desc>
	<defs/>
	<rect id="Rectangle" rx="16.000000" width="136.000000" height="32.000000" fill="#FF3E79" fill-opacity="1.000000"/>
	<rect id="Rectangle" rx="16.000000" width="136.000000" height="32.000000" stroke="#979797" stroke-opacity="0" stroke-width="0.000000"/>
	<path id="Заказать" d="M27.77 19.49Q28.3 18.96 28.3 17.92L28.3 13.48Q28.3 12.43 27.77 11.9Q27.25 11.38 26.2 11.38L22.54 11.38Q21.49 11.38 20.96 11.9Q20.44 12.43 20.44 13.48L20.44 17.92Q20.44 18.96 20.96 19.49Q21.49 20.02 22.54 20.02L26.2 20.02Q27.25 20.02 27.77 19.49ZM33.43 19.9C33.63 19.9 33.73 19.79 33.73 19.6L33.73 13.18L36.13 13.18C36.33 13.18 36.43 13.08 36.43 12.88L36.43 11.8C36.43 11.6 36.33 11.5 36.13 11.5L29.41 11.5C29.21 11.5 29.11 11.6 29.11 11.8L29.11 12.88C29.11 13.08 29.21 13.18 29.41 13.18L31.81 13.18L31.81 19.6C31.81 19.79 31.91 19.9 32.11 19.9L33.43 19.9ZM44.86 11.8C44.86 11.6 44.76 11.5 44.56 11.5L37.66 11.5Q37.51 11.5 37.43 11.57Q37.36 11.65 37.36 11.8L37.36 19.6C37.36 19.79 37.46 19.9 37.66 19.9L38.98 19.9Q39.13 19.9 39.2 19.82Q39.28 19.75 39.28 19.6L39.28 13.18L42.94 13.18L42.94 19.6C42.94 19.79 43.04 19.9 43.24 19.9L44.56 19.9C44.76 19.9 44.86 19.79 44.86 19.6L44.86 11.8ZM48.55 19.6L48.55 17.44L51.85 17.44Q52.9 17.44 53.42 16.91Q53.95 16.39 53.95 15.34L53.95 13.6Q53.95 12.55 53.42 12.02Q52.9 11.5 51.85 11.5L46.93 11.5C46.73 11.5 46.63 11.6 46.63 11.8L46.63 19.6C46.63 19.79 46.73 19.9 46.93 19.9L48.25 19.9C48.45 19.9 48.55 19.79 48.55 19.6ZM56.18 19.6L56.72 18.16L59.96 18.16L60.5 19.6C60.54 19.68 60.59 19.76 60.64 19.81C60.71 19.87 60.8 19.9 60.92 19.9L62.42 19.9C62.62 19.9 62.68 19.79 62.6 19.6L59.66 11.8C59.62 11.71 59.57 11.64 59.5 11.58C59.45 11.52 59.36 11.5 59.24 11.5L57.5 11.5Q57.29 11.5 57.16 11.6Q57.07 11.67 57.02 11.8L54.08 19.6C54 19.79 54.06 19.9 54.26 19.9L55.76 19.9C55.88 19.9 55.97 19.87 56.02 19.81C56.09 19.76 56.14 19.68 56.18 19.6ZM63.87 11.5C63.67 11.5 63.57 11.6 63.57 11.8L63.57 19.6C63.57 19.79 63.67 19.9 63.87 19.9L68.85 19.9Q69.9 19.9 70.42 19.37Q70.95 18.85 70.95 17.79L70.95 17.02C70.95 16.67 70.88 16.4 70.73 16.2C70.6 15.99 70.45 15.83 70.29 15.72C70.09 15.59 69.87 15.5 69.63 15.46L69.63 15.34C69.78 15.3 69.92 15.22 70.05 15.11C70.15 15.01 70.25 14.88 70.34 14.71C70.42 14.54 70.47 14.3 70.47 14.02L70.47 13.6C70.47 12.2 69.77 11.5 68.37 11.5L63.87 11.5ZM74.76 19.6L78 14.44L78.12 14.44L78.12 19.6C78.12 19.79 78.22 19.9 78.42 19.9L79.74 19.9C79.94 19.9 80.04 19.79 80.04 19.6L80.04 11.8C80.04 11.6 79.94 11.5 79.74 11.5L78.12 11.5Q77.94 11.5 77.83 11.58C77.77 11.64 77.7 11.71 77.64 11.8L74.4 16.95L74.28 16.95L74.28 11.8C74.28 11.6 74.18 11.5 73.98 11.5L72.66 11.5C72.46 11.5 72.36 11.6 72.36 11.8L72.36 19.6C72.36 19.79 72.46 19.9 72.66 19.9L74.28 19.9C74.4 19.9 74.49 19.87 74.55 19.81C74.63 19.76 74.69 19.68 74.76 19.6ZM85.51 19.82Q85.59 19.75 85.59 19.6L85.59 13.18L87.99 13.18C88.19 13.18 88.29 13.08 88.29 12.88L88.29 11.8C88.29 11.6 88.19 11.5 87.99 11.5L81.27 11.5Q81.12 11.5 81.04 11.57Q80.97 11.65 80.97 11.8L80.97 12.88C80.97 13.08 81.07 13.18 81.27 13.18L83.67 13.18L83.67 19.6C83.67 19.79 83.77 19.9 83.97 19.9L85.29 19.9Q85.44 19.9 85.51 19.82ZM96.42 16.12C96.42 14.72 95.72 14.02 94.32 14.02L91.14 14.02L91.14 11.8C91.14 11.6 91.04 11.5 90.84 11.5L89.52 11.5C89.32 11.5 89.22 11.6 89.22 11.8L89.22 19.6C89.22 19.79 89.32 19.9 89.52 19.9L94.32 19.9C95.72 19.9 96.42 19.2 96.42 17.79L96.42 16.12ZM25.72 13.06C26.16 13.06 26.38 13.28 26.38 13.72L26.38 17.68C26.38 18.12 26.16 18.34 25.72 18.34L23.02 18.34C22.58 18.34 22.36 18.12 22.36 17.68L22.36 13.72C22.36 13.28 22.58 13.06 23.02 13.06L25.72 13.06ZM48.55 15.76L48.55 13.18L51.37 13.18C51.81 13.18 52.03 13.4 52.03 13.84L52.03 15.1C52.03 15.54 51.81 15.76 51.37 15.76L48.55 15.76ZM65.49 14.68L65.49 13.18L67.89 13.18Q68.22 13.18 68.38 13.34Q68.55 13.51 68.55 13.84L68.55 14.02Q68.55 14.35 68.38 14.51Q68.22 14.68 67.89 14.68L65.49 14.68ZM58.4 13.9L59.36 16.48L57.32 16.48L58.28 13.9L58.4 13.9ZM94.5 17.56C94.5 18 94.28 18.21 93.84 18.21L91.14 18.21L91.14 15.7L93.84 15.7C94.28 15.7 94.5 15.92 94.5 16.36L94.5 17.56ZM69.03 17.56C69.03 18 68.81 18.21 68.37 18.21L65.49 18.21L65.49 16.36L68.37 16.36C68.81 16.36 69.03 16.58 69.03 17.02L69.03 17.56Z" fill="#FFFFFF" fill-opacity="1.000000" fill-rule="evenodd"/>
	<rect id="back" x="99.428589" y="4.000000" rx="12.000000" width="27.428572" height="24.000000" fill="#FF3E79" fill-opacity="1.000000"/>
	<path id="dropdown" d="M114.05 16L110.67 13.27C110.17 12.87 110.17 12.12 110.66 11.72L110.91 11.51C111.28 11.21 111.8 11.21 112.17 11.51L116.75 15.22C117.24 15.62 117.24 16.37 116.75 16.77L112.27 20.4C111.84 20.75 111.23 20.75 110.81 20.4C110.24 19.93 110.25 19.06 110.82 18.6L114.05 16Z" fill="#FFFFFF" fill-opacity="1.000000" fill-rule="evenodd"/>
</svg>
