<svg width="136" height="32" fill="none" xmlns="http://www.w3.org/2000/svg"><rect rx="16" width="136" height="32" fill="#FF3E79"/><rect rx="16" width="136" height="32"/><path d="M27.77 19.49q.53-.53.53-1.57v-4.44q0-1.05-.53-1.58-.52-.52-1.57-.52h-3.66q-1.05 0-1.58.52-.52.53-.52 1.58v4.44q0 1.04.52 1.57.53.53 1.58.53h3.66q1.05 0 1.57-.53Zm5.66.41c.2 0 .3-.11.3-.3v-6.42h2.4c.2 0 .3-.1.3-.3V11.8c0-.2-.1-.3-.3-.3h-6.72c-.2 0-.3.1-.3.3v1.08c0 .2.1.3.3.3h2.4v6.42c0 .19.1.3.3.3h1.32Zm11.43-8.1c0-.2-.1-.3-.3-.3h-6.9q-.15 0-.23.07-.07.08-.07.23v7.8c0 .19.1.3.3.3h1.32q.15 0 .22-.08.08-.07.08-.22v-6.42h3.66v6.42c0 .19.1.3.3.3h1.32c.2 0 .3-.11.3-.3v-7.8Zm3.69 7.8v-2.16h3.3q1.05 0 1.57-.53.53-.52.53-1.57V13.6q0-1.05-.53-1.58-.52-.52-1.57-.52h-4.92c-.2 0-.3.1-.3.3v7.8c0 .19.1.3.3.3h1.32c.2 0 .3-.11.3-.3Zm7.63 0 .54-1.44h3.24l.54 1.44c.04.08.09.16.14.21.07.06.16.09.28.09h1.5c.2 0 .26-.11.18-.3l-2.94-7.8a.596.596 0 0 0-.16-.22c-.05-.06-.14-.08-.26-.08H57.5q-.21 0-.34.1-.09.07-.14.2l-2.94 7.8c-.08.19-.02.3.18.3h1.5c.12 0 .21-.03.26-.09a.56.56 0 0 0 .16-.21Zm7.69-8.1c-.2 0-.3.1-.3.3v7.8c0 .19.1.3.3.3h4.98q1.05 0 1.57-.53.53-.52.53-1.58v-.77c0-.35-.07-.62-.22-.82-.13-.21-.28-.37-.44-.48-.2-.13-.42-.22-.66-.26v-.12c.15-.04.29-.12.42-.23.1-.1.2-.23.29-.4.08-.17.13-.41.13-.69v-.42c0-1.4-.7-2.1-2.1-2.1h-4.5Zm10.89 8.1L78 14.44h.12v5.16c0 .19.1.3.3.3h1.32c.2 0 .3-.11.3-.3v-7.8c0-.2-.1-.3-.3-.3h-1.62q-.18 0-.29.08c-.06.06-.13.13-.19.22l-3.24 5.15h-.12V11.8c0-.2-.1-.3-.3-.3h-1.32c-.2 0-.3.1-.3.3v7.8c0 .19.1.3.3.3h1.62c.12 0 .21-.03.27-.09.08-.05.14-.13.21-.21Zm10.75.22q.08-.07.08-.22v-6.42h2.4c.2 0 .3-.1.3-.3V11.8c0-.2-.1-.3-.3-.3h-6.72q-.15 0-.23.07-.07.08-.07.23v1.08c0 .2.1.3.3.3h2.4v6.42c0 .19.1.3.3.3h1.32q.15 0 .22-.08Zm10.91-3.7c0-1.4-.7-2.1-2.1-2.1h-3.18V11.8c0-.2-.1-.3-.3-.3h-1.32c-.2 0-.3.1-.3.3v7.8c0 .19.1.3.3.3h4.8c1.4 0 2.1-.7 2.1-2.11v-1.67Zm-70.7-3.06c.44 0 .66.22.66.66v3.96c0 .44-.22.66-.66.66h-2.7c-.44 0-.66-.22-.66-.66v-3.96c0-.44.22-.66.66-.66h2.7Zm22.83 2.7v-2.58h2.82c.44 0 .66.22.66.66v1.26c0 .44-.22.66-.66.66h-2.82Zm16.94-1.08v-1.5h2.4q.33 0 .49.16.17.17.17.5v.18q0 .33-.17.49-.16.17-.49.17h-2.4Zm-7.09-.78.96 2.58h-2.04l.96-2.58h.12Zm36.1 3.66c0 .44-.22.65-.66.65h-2.7V15.7h2.7c.44 0 .66.22.66.66v1.2Zm-25.47 0c0 .44-.22.65-.66.65h-2.88v-1.85h2.88c.44 0 .66.22.66.66v.54Z" fill="#FFF" fill-rule="evenodd"/><rect x="99.429" y="4" rx="12" width="27.429" height="24" fill="#FF3E79"/><path d="m114.05 16-3.38-2.73c-.5-.4-.5-1.15-.01-1.55l.25-.21c.37-.3.89-.3 1.26 0l4.58 3.71a1 1 0 0 1 0 1.55l-4.48 3.63c-.43.35-1.04.35-1.46 0-.57-.47-.56-1.34.01-1.8l3.23-2.6Z" fill="#FFF" fill-rule="evenodd"/></svg>