<svg width="119" height="32" fill="none" xmlns="http://www.w3.org/2000/svg"><rect rx="16" width="119" height="32" fill="#FF3E79"/><rect rx="16" width="119" height="32"/><path d="M19.83 14.83c.11-.17.17-.41.17-.69v-.66q0-1.05-.53-1.58-.52-.52-1.57-.52h-3.06q-1.05 0-1.58.52-.52.53-.52 1.58v.6c0 .2.1.3.3.3h1.32q.15 0 .22-.08.08-.07.08-.22v-.36c0-.44.22-.66.66-.66h2.1q.33 0 .49.16.17.17.17.5v.42c0 .44-.22.66-.66.66H15.8q-.15 0-.23.07-.07.08-.07.23v1.08c0 .19.1.3.3.3h1.74q.33 0 .49.16.17.17.17.5v.54c0 .44-.22.66-.66.66H15.2q-.33 0-.5-.17-.16-.16-.16-.49v-.36c0-.2-.1-.3-.3-.3h-1.32q-.15 0-.23.07-.07.08-.07.23v.6q0 1.04.52 1.57.53.53 1.58.53h3.3q1.05 0 1.57-.53.53-.53.53-1.57v-.78c0-.35-.07-.62-.19-.82q-.18-.31-.41-.48c-.18-.13-.38-.22-.6-.26v-.12c.2-.04.38-.12.54-.23.13-.1.26-.23.37-.4Zm34.52 0c.11-.17.17-.41.17-.69v-.66c0-1.4-.7-2.1-2.1-2.1h-3.06c-1.4 0-2.1.7-2.1 2.1v.6c0 .2.1.3.3.3h1.32c.2 0 .3-.1.3-.3v-.36c0-.44.22-.66.66-.66h2.1c.44 0 .66.22.66.66v.42c0 .44-.22.66-.66.66h-1.62c-.2 0-.3.1-.3.3v1.08c0 .19.1.3.3.3h1.74c.44 0 .66.22.66.66v.54c0 .44-.22.66-.66.66h-2.34c-.44 0-.66-.22-.66-.66v-.36c0-.2-.1-.3-.3-.3h-1.32c-.2 0-.3.1-.3.3v.6q0 1.04.52 1.57.53.53 1.58.53h3.3c1.4 0 2.1-.7 2.1-2.1v-.78c0-.35-.07-.62-.19-.82-.12-.21-.26-.37-.41-.48-.18-.13-.38-.22-.6-.26v-.12c.2-.04.38-.12.54-.23q.2-.15.37-.4Zm-31.4 4.77.54-1.44h3.24l.54 1.44c.04.08.09.16.14.21q.1.09.28.09h1.5c.2 0 .26-.11.18-.3l-2.94-7.8a.596.596 0 0 0-.16-.22c-.05-.06-.14-.08-.26-.08h-1.74q-.21 0-.34.1-.09.07-.14.2l-2.94 7.8c-.08.19-.02.3.18.3h1.5c.12 0 .21-.03.26-.09a.56.56 0 0 0 .16-.21Zm10.93-4.92h-1.62V11.8c0-.2-.1-.3-.3-.3h-1.32q-.15 0-.23.07-.07.08-.07.23v7.8c0 .19.1.3.3.3h1.32q.15 0 .22-.08.08-.07.08-.22v-3.24h1.68l1.74 3.24c.05.08.11.16.18.21.08.06.18.09.3.09h1.5c.09 0 .15-.03.19-.09.04-.05.04-.13-.01-.21l-2.28-4.14 2.04-3.66c.05-.09.05-.16.01-.22s-.1-.08-.19-.08h-1.5c-.12 0-.22.02-.3.08-.07.06-.13.13-.18.22l-1.56 2.88Zm6.23 4.92.54-1.44h3.24l.54 1.44c.04.08.09.16.14.21q.1.09.28.09h1.5c.2 0 .26-.11.18-.3l-2.94-7.8a.596.596 0 0 0-.16-.22c-.05-.06-.14-.08-.26-.08h-1.74q-.21 0-.34.1-.09.07-.14.2l-2.94 7.8c-.08.19-.02.3.18.3h1.5c.12 0 .21-.03.26-.09a.56.56 0 0 0 .16-.21Zm17.36 0 .54-1.44h3.24l.54 1.44c.04.08.09.16.14.21.07.06.16.09.28.09h1.5c.2 0 .26-.11.18-.3l-2.94-7.8a.596.596 0 0 0-.16-.22c-.05-.06-.14-.08-.26-.08h-1.74q-.21 0-.34.1-.09.07-.14.2l-2.94 7.8c-.08.19-.02.3.18.3h1.5c.12 0 .21-.03.26-.09a.56.56 0 0 0 .16-.21Zm9.67.3c.2 0 .3-.11.3-.3v-6.42h2.4c.2 0 .3-.1.3-.3V11.8c0-.2-.1-.3-.3-.3h-6.72c-.2 0-.3.1-.3.3v1.08c0 .2.1.3.3.3h2.4v6.42c0 .19.1.3.3.3h1.32Zm11.13-3.78c0-1.4-.7-2.1-2.1-2.1h-3.18V11.8c0-.2-.1-.3-.3-.3h-1.32c-.2 0-.3.1-.3.3v7.8c0 .19.1.3.3.3h4.8c1.4 0 2.1-.7 2.1-2.11v-1.67Zm-53.1-2.22.96 2.58h-2.04l.96-2.58h.12Zm17.16 0 .96 2.58h-2.04l.96-2.58h.12Zm17.36 0 .96 2.58h-2.04l.96-2.58h.12Zm16.66 3.66c0 .44-.22.65-.66.65h-2.7V15.7h2.7c.44 0 .66.22.66.66v1.2Z" fill="#FFF" fill-rule="evenodd"/><rect x="87" y="4" rx="12" width="24" height="24" fill="#FF3E79"/><path d="m99.8 16-3.01-2.78a.995.995 0 0 1-.01-1.46l.14-.13c.38-.36.97-.36 1.36 0l3.92 3.63c.43.4.43 1.07 0 1.47l-3.86 3.57c-.42.39-1.07.39-1.49 0-.46-.44-.46-1.17.01-1.6L99.8 16Z" fill="#FFF" fill-rule="evenodd"/></svg>