<svg width="97.048" height="51.314" fill="none" xmlns="http://www.w3.org/2000/svg"><path d="M36.09.25c-.55 0-1 .44-1 1v4.27c0 .55.45 1 1 1h36.33c10.12 0 18.08 7.8 18.08 17.89 0 .29.23.52.51.52h5.27c.28 0 .51-.23.51-.52C96.79 10.92 85.95.25 72.42.25H36.09Z" fill="#6B7B84" fill-rule="evenodd"/><path d="M35.09 5.52c0 .55.45 1 1 1h36.33c10.12 0 18.08 7.8 18.08 17.89 0 .29.23.52.51.52h5.27c.28 0 .51-.23.51-.52C96.79 10.92 85.95.25 72.42.25H36.09c-.55 0-1 .44-1 1v4.27Z" stroke="#80949F" stroke-width=".5"/><path d="M6.63 25.36c0-.24-.2-.43-.44-.43H.68c-.24 0-.43.19-.43.43 0 13.65 10.22 24.92 23.44 25.66l42.34.04c.55 0 1-.45 1-1v-4.58c0-.55-.45-1-1-1H25.15c-10.24-.03-18.52-8.54-18.52-19.12Z" fill="#6B7B84" fill-rule="evenodd"/><path d="M.68 24.93c-.24 0-.43.19-.43.43 0 13.65 10.22 24.92 23.44 25.66l42.34.04c.55 0 1-.45 1-1v-4.58c0-.55-.45-1-1-1H25.15c-10.24-.03-18.52-8.54-18.52-19.12 0-.24-.2-.43-.44-.43H.68Z" stroke="#80949F" stroke-width=".5"/><path d="M27.66 39.45c2.74 0 5.02-.54 7.27-1.63l.16-.15v-7.83l-.84 1.08c-1.63 1.77-3.81 2.75-6.27 2.75-4.59 0-9.2-2.97-9.2-8.64 0-4.29 3.18-8.85 9.04-8.85 1.17 0 4.01.28 6.42 2.84l.85 1.04v-7.79l-.15-.15c-2.3-1.15-4.64-1.71-7.31-1.71-4.56 0-8.13 1.2-10.97 3.67-1.8 1.55-4.8 5.02-4.8 10.86 0 4.33 1.54 7.7 4.83 10.63 3.05 2.68 6.45 3.88 10.97 3.88Z" fill="#6B7B84" fill-rule="evenodd"/><path d="m34.93 37.82.16-.15v-7.83l-.84 1.08c-1.63 1.77-3.81 2.75-6.27 2.75-4.59 0-9.2-2.97-9.2-8.64 0-4.29 3.18-8.85 9.04-8.85 1.17 0 4.01.28 6.42 2.84l.85 1.04v-7.79l-.15-.15c-2.3-1.15-4.64-1.71-7.31-1.71-4.56 0-8.13 1.2-10.97 3.67-1.8 1.55-4.8 5.02-4.8 10.86 0 4.33 1.54 7.7 4.83 10.63 3.05 2.68 6.45 3.88 10.97 3.88 2.74 0 5.02-.54 7.27-1.63Z" stroke="#80949F" stroke-width=".5"/><mask id="a" fill="#fff"><path d="M58.018 26.787c-1.756 1.756-4.286 2.688-7.517 2.688h-2.94v9.975H40.9V10.413h8.755c3.282 0 5.609.477 7.79 2.388 2.66 2.363 3.056 5.627 3.056 7.3 0 1.564-.323 4.53-2.484 6.686Zm-10.583-9.84H48.8c1.252 0 2.678.068 3.758.803.527.377 1.411 1.249 1.411 2.832 0 1.17-.517 2.22-1.37 2.874-1.04.754-2.265.752-3.282.75h-1.881v-7.26Z" clip-rule="evenodd" fill-rule="evenodd"/></mask><path d="M58.018 26.787c-1.756 1.756-4.286 2.688-7.517 2.688h-2.94v9.975H40.9V10.413h8.755c3.282 0 5.609.477 7.79 2.388 2.66 2.363 3.056 5.627 3.056 7.3 0 1.564-.323 4.53-2.484 6.686Zm-10.583-9.84H48.8c1.252 0 2.678.068 3.758.803.527.377 1.411 1.249 1.411 2.832 0 1.17-.517 2.22-1.37 2.874-1.04.754-2.265.752-3.282.75h-1.881v-7.26Z" clip-rule="evenodd" fill="#6B7B84" fill-rule="evenodd" mask="url(#a)"/><path d="M58.195 26.964q-1.365 1.365-3.297 2.06-1.944.701-4.397.701h-2.94v-.25h.25V39.7h-7.16V10.163h9.005q1.31 0 2.321.106 1.124.117 2.055.38.99.281 1.857.753.894.487 1.72 1.211 1.812 1.608 2.6 4.02.3.92.437 1.92.106.777.106 1.548 0 1.672-.442 3.19-.64 2.2-2.115 3.673Zm-.353-.354q1.385-1.382 1.988-3.458.422-1.45.422-3.05 0-.738-.102-1.481-.13-.955-.417-1.834-.746-2.282-2.453-3.798-.784-.688-1.63-1.148-.817-.445-1.755-.71-.89-.252-1.97-.365-.986-.103-2.269-.103h-8.754v-.25h.25V39.45h-.25v-.25h6.658v.25h-.25V29.225h3.191q2.365 0 4.227-.67 1.828-.659 3.113-1.944Zm-10.407-9.914H48.8q.566 0 .977.023.552.03 1.008.107 1.142.192 1.914.718.594.425.975 1.038.545.88.545 2 0 .928-.39 1.739-.386.802-1.079 1.333l-.002.002-.003.002q-.735.534-1.755.703-.39.064-.867.084-.28.011-.806.01h-2.132v-7.759h.25Zm0 .5v-.25h.25v7.26h-.25v-.25h1.882q.516 0 .785-.01.446-.019.805-.078.904-.15 1.543-.615l.147.203-.152-.199q.598-.458.933-1.153.34-.708.34-1.522 0-.977-.47-1.736-.328-.529-.832-.889-.68-.464-1.715-.638-.729-.123-1.902-.123h-1.364Z" fill="#80949F"/><path d="M80.47 24.12c-1.45-1.28-3.47-2.02-5.76-2.8-1.63-.56-2.53-.88-3.13-1.43-.48-.4-.69-.83-.69-1.41 0-1.27.86-2.62 3.27-2.62 1.64 0 3.01.7 4.08 2.09l.42.54 3.52-4.47-.32-.32c-2.15-2.16-4.99-3.29-8.2-3.29-6.48 0-9.38 4.21-9.38 8.39 0 2.24.8 4.05 2.38 5.37 1.4 1.21 3.12 1.88 4.76 2.43l.19.06c1.46.49 2.97.99 3.88 1.8.62.57.9 1.2.9 2.03 0 1.9-1.49 3.18-3.72 3.18-1.76 0-4.08-.87-5.3-3.29l-.32-.63-4.38 4.04.26.37c1.4 1.97 4.54 5.29 9.95 5.29 5.96 0 10.12-3.84 10.12-9.32 0-3.14-1.38-5-2.53-6.01Z" fill="#6B7B84" fill-rule="evenodd"/><path d="M74.71 21.32c-1.63-.56-2.53-.88-3.13-1.43-.48-.4-.69-.83-.69-1.41 0-1.27.86-2.62 3.27-2.62 1.64 0 3.01.7 4.08 2.09l.42.54 3.52-4.47-.32-.32c-2.15-2.16-4.99-3.29-8.2-3.29-6.48 0-9.38 4.21-9.38 8.39 0 2.24.8 4.05 2.38 5.37 1.4 1.21 3.12 1.88 4.76 2.43l.19.06c1.46.49 2.97.99 3.88 1.8.62.57.9 1.2.9 2.03 0 1.9-1.49 3.18-3.72 3.18-1.76 0-4.08-.87-5.3-3.29l-.32-.63-4.38 4.04.26.37c1.4 1.97 4.54 5.29 9.95 5.29 5.96 0 10.12-3.84 10.12-9.32 0-3.14-1.38-5-2.53-6.01-1.45-1.28-3.47-2.02-5.76-2.8Z" stroke="#80949F" stroke-width=".5"/></svg>